<?xml version="1.0" standalone="no"?>
<!DOCTYPE svg PUBLIC "-//W3C//DTD SVG 1.1//EN" "http://www.w3.org/Graphics/SVG/1.1/DTD/svg11.dtd" >
<svg xmlns="http://www.w3.org/2000/svg">
<metadata></metadata>
<defs>
<font id="psl_kandamodern_proregular" horiz-adv-x="747" >
<font-face units-per-em="2048" ascent="1638" descent="-410" />
<missing-glyph horiz-adv-x="471" />
<glyph horiz-adv-x="0" />
<glyph horiz-adv-x="682" />
<glyph unicode=" "  horiz-adv-x="471" />
<glyph unicode="&#x09;" horiz-adv-x="471" />
<glyph unicode="&#xa0;" horiz-adv-x="471" />
<glyph unicode="!" horiz-adv-x="350" d="M141 0v139h68v-139h-68zM143 614v351h66v-351l-16 -366h-33z" />
<glyph unicode="&#x22;" horiz-adv-x="425" d="M109 655v310h51v-310h-51zM266 655v310h51v-310h-51z" />
<glyph unicode="#" horiz-adv-x="751" d="M41 311v45h166q2 15 5.5 39t10.5 75.5t11.5 85.5t3.5 34h-160v45h168l41 297h45l-43 -297h227l43 297h45l-43 -297h150v-45h-156l-33 -234h152v-45h-158l-43 -311h-45l43 311h-227l-43 -311h-45q3 20 7.5 52t14 100t16 113.5t5.5 45.5h-158zM250 356h1h2h1h2h2h1h2h1h2h1 h2h1h2h1h2h1h2h1h2h2h1h2h1h2h1h2h2h1h2h1h2h2h1h2h1h2h2h1h2h1h2h2h1h2h2h1h2h2h1h2h2h1h2h2h1h2h2h1h2h2h1h2h2h2h1h2h2h1h2h2h2h1h2h2h2h1h2h2h2h1h2h2h2h1h2h2h2h2h1h2h2h2h2h1h2h2h2h2h1h2h2h2h2h2h2h1h2h2h2h2h2h2h2h1h2h2h2h2h2h2h2h2h2h2h2h1h2h10l33 234h-227z" />
<glyph unicode="$" horiz-adv-x="737" d="M16 317h50q0 -140 76 -211t200 -77v448q-59 13 -96 24t-79.5 31t-66 45t-39.5 64.5t-16 91.5q0 122 80.5 185.5t216.5 68.5v109h41v-109q295 -11 309 -297h-53q1 45 -9.5 84t-37 77t-80 61t-129.5 26v-418q62 -14 104.5 -26t89 -33.5t74.5 -48.5t46 -68.5t18 -95.5 q0 -71 -27.5 -124.5t-75.5 -84t-105 -45.5t-124 -17v-118h-41v118q-147 6 -239.5 93.5t-86.5 246.5zM96 733q0 -95 54.5 -136t191.5 -69v410q-108 -5 -177 -54.5t-69 -150.5zM383 29q281 8 281 227q0 42 -17 75t-40.5 53.5t-65.5 38t-74 26t-84 20.5v-440z" />
<glyph unicode="%" horiz-adv-x="1050" d="M53 705q0 101 63 172t165 71q105 0 164 -65.5t59 -163.5q0 -104 -64.5 -179t-160.5 -75q-94 0 -160 71.5t-66 168.5zM102 705q0 -77 50.5 -135t123.5 -58q76 0 125.5 60.5t49.5 142.5q0 77 -48.5 132.5t-121.5 55.5q-78 0 -128.5 -58.5t-50.5 -139.5zM186 -33l627 998h53 l-624 -998h-56zM547 221q0 101 62.5 172.5t164.5 71.5q105 0 164 -65.5t59 -163.5q0 -104 -64.5 -179t-160.5 -75q-94 0 -159.5 71t-65.5 168zM596 221q0 -77 50.5 -134.5t123.5 -57.5q76 0 125 60t49 142q0 77 -48.5 133t-121.5 56q-78 0 -128 -58.5t-50 -140.5z" />
<glyph unicode="&#x26;" horiz-adv-x="800" d="M59 219q0 97 52.5 162.5t197.5 148.5q-1 1 -33 41.5t-48 64.5t-34 68t-18 82q0 66 62 114t143 48q91 0 147 -45t56 -135q0 -33 -13 -64t-29 -53t-48.5 -50t-51.5 -42t-59 -41l231 -285q31 76 31 162h53q-9 -111 -51 -200l158 -195h-70l-117 143q-48 -75 -119 -117 t-153 -42q-131 0 -209 64t-78 171zM109 219q0 -84 71 -137t164 -53q72 0 137.5 40.5t106.5 112.5l-250 312q-16 -10 -46.5 -29t-45 -28t-38 -26.5t-34.5 -29t-26.5 -30.5t-22 -37t-11.5 -42.5t-5 -52.5zM229 780q0 -43 31.5 -98t62.5 -89l31 -34q7 4 19 10.5t43 29t54.5 46 t42.5 59t19 70.5q0 57 -45 94t-106 37q-60 0 -106 -35t-46 -90z" />
<glyph unicode="'" horiz-adv-x="276" d="M113 655v310h51v-310h-51z" />
<glyph unicode="(" horiz-adv-x="364" d="M92 401q0 202 50 347.5t145 277.5h51q-110 -168 -151.5 -300.5t-41.5 -328.5q0 -335 193 -606l-53 4q-193 254 -193 606z" />
<glyph unicode=")" horiz-adv-x="364" d="M27 -209q192 270 192 606q0 196 -41 328.5t-151 300.5h51q94 -132 144 -277.5t50 -347.5q0 -353 -192 -606z" />
<glyph unicode="*" horiz-adv-x="487" d="M41 807l14 41l164 -53v172h47v-172l162 53l16 -41l-159 -57l94 -136l-31 -30l-104 137l-109 -137l-35 30l105 136z" />
<glyph unicode="+" d="M61 315v52h287v284h51v-284h287v-52h-287v-288h-51v288h-287z" />
<glyph unicode="," horiz-adv-x="288" d="M78 49q0 26 19 46t46 20q36 0 57 -24.5t21 -63.5q0 -43 -26 -90t-76 -78l-31 20q32 21 57.5 57t28.5 62q-16 -8 -37 -8q-24 0 -41.5 17.5t-17.5 41.5z" />
<glyph unicode="-" horiz-adv-x="475" d="M94 342v51h289v-51h-289z" />
<glyph unicode="." horiz-adv-x="288" d="M82 51q0 27 17.5 45.5t43.5 18.5t45 -19t19 -45t-18.5 -43.5t-45.5 -17.5q-26 0 -43.5 17.5t-17.5 43.5z" />
<glyph unicode="/" horiz-adv-x="450" d="M-18 -23l430 1010h55l-430 -1010h-55z" />
<glyph unicode="0" d="M35 479q0 94 18 175t56.5 148.5t106 106.5t157.5 39q75 0 134.5 -27.5t97 -71.5t62 -103.5t34.5 -119t10 -122.5q0 -520 -338 -520q-78 0 -138.5 29.5t-97.5 76.5t-60.5 113.5t-32.5 133t-9 142.5zM88 477q0 -133 27 -230t92.5 -157.5t165.5 -60.5q286 0 286 473 q0 60 -9.5 116t-31.5 109t-54 92t-81 62.5t-110 23.5q-78 0 -136 -37.5t-89 -102t-45.5 -136t-14.5 -152.5z" />
<glyph unicode="1" d="M164 758v39q139 0 187 25t48 100v10h45v-932h-51v758h-229z" />
<glyph unicode="2" d="M61 0q-1 35 6.5 67.5t19 58t35.5 54t43 47.5t55 46t58 42t65.5 44t64.5 44q106 73 157 140t51 162q0 85 -68 142.5t-159 57.5q-60 0 -107 -18t-73.5 -46.5t-45.5 -62.5t-23.5 -65.5t-7.5 -57.5t3 -37h-51q-2 21 -4 48t6.5 58.5t20.5 63t37.5 60.5t57 51t79.5 35.5 t106 13.5q127 0 204 -68.5t77 -179.5q0 -57 -14.5 -103.5t-45.5 -85.5t-63 -66.5t-84 -65.5q-26 -18 -89 -61.5t-95 -67.5t-73.5 -61t-60 -70.5t-18.5 -67.5h557v-51h-621z" />
<glyph unicode="3" d="M45 307h51q0 -143 75.5 -210.5t207.5 -67.5q105 0 182.5 64.5t77.5 162.5q0 110 -79 166.5t-238 50.5v45q140 -7 216 46.5t76 156.5q0 82 -69 133t-160 51q-128 0 -201.5 -76t-68.5 -190h-47q-3 135 80 222t237 87q118 0 199.5 -65t81.5 -168q0 -83 -50.5 -143.5 t-132.5 -73.5q89 -9 147 -76t58 -166q0 -120 -87 -196t-222 -76q-73 0 -130 15t-104.5 50t-73.5 100t-26 158z" />
<glyph unicode="4" d="M37 238v51l455 643h51v-649h157v-45h-157v-238h-51v238h-455zM88 283h404v579z" />
<glyph unicode="5" d="M49 285h49q-1 -119 76.5 -187.5t192.5 -68.5q112 0 189 80.5t77 193.5q0 115 -75 197t-179 82q-91 0 -142.5 -30.5t-109.5 -100.5h-51l96 481h471v-49h-432l-76 -369q51 61 107.5 87t138.5 26q127 0 215 -92t88 -230q0 -139 -91 -230t-224 -91q-137 0 -234 82.5 t-86 218.5z" />
<glyph unicode="6" d="M63 297q-29 181 19 375q34 133 116 204.5t199 71.5q129 0 201.5 -69.5t85.5 -176.5h-49q-17 86 -75.5 144.5t-162.5 58.5q-60 0 -108 -22t-78.5 -61t-52.5 -86.5t-32.5 -104.5t-14.5 -109t-2 -106q35 96 110 148t178 52q130 0 216.5 -91.5t86.5 -233.5q0 -131 -89 -219 t-230 -88q-267 0 -318 313zM123 297q0 -107 74 -187.5t188 -80.5q108 0 186 78t78 184q0 114 -76 197t-188 83q-108 0 -185 -79t-77 -195z" />
<glyph unicode="7" d="M74 883v49h602v-53l-17 -17t-43 -48t-63 -77t-71 -101t-72 -122q-53 -101 -87 -229.5t-41 -206.5l-8 -78h-59q0 11 1.5 31t10.5 82t23.5 122.5t44.5 144.5t70 157q41 76 105.5 162.5t108.5 134.5l44 49h-549z" />
<glyph unicode="8" d="M51 254q0 114 58.5 179t150.5 75q-174 42 -174 211q0 106 79.5 168.5t207.5 62.5q125 0 207 -57.5t82 -159.5q0 -98 -44 -149.5t-129 -73.5q94 -12 150.5 -78t56.5 -170q0 -124 -87 -201t-232 -77q-140 0 -233 69t-93 201zM102 260q0 -100 72 -165.5t199 -65.5 t199.5 65.5t72.5 163.5q0 103 -65 165t-207 62q-136 0 -203.5 -62.5t-67.5 -162.5zM135 721q0 -82 63.5 -136.5t172.5 -54.5q115 0 178 54t63 137q0 81 -63 132.5t-176 51.5q-114 0 -176 -51.5t-62 -132.5z" />
<glyph unicode="9" d="M59 637q2 133 88.5 222t227.5 89q71 0 126.5 -20t90 -57.5t57.5 -82.5t33.5 -104.5t14 -113t1.5 -117.5q-2 -71 -13 -135.5t-35.5 -126.5t-61.5 -107t-95 -72.5t-131 -27.5q-121 0 -202 67t-88 178h53q9 -86 73.5 -143t151.5 -57q71 0 125 28.5t86.5 74.5t53 110.5 t28 128.5t6.5 137q-36 -92 -106.5 -142.5t-167.5 -50.5q-142 0 -230 93.5t-86 228.5zM111 635q0 -114 77.5 -194.5t186.5 -80.5q110 0 187 80.5t77 194.5t-77 193t-187 79q-109 0 -186.5 -79t-77.5 -193z" />
<glyph unicode=":" horiz-adv-x="288" d="M82 51q0 27 17.5 45.5t43.5 18.5t45 -19t19 -45t-18.5 -43.5t-45.5 -17.5q-26 0 -43.5 17.5t-17.5 43.5zM82 598q0 27 17.5 45.5t43.5 18.5t45 -19t19 -45t-18.5 -43.5t-45.5 -17.5q-26 0 -43.5 17.5t-17.5 43.5z" />
<glyph unicode=";" horiz-adv-x="288" d="M78 49q0 26 19 46t46 20q36 0 57 -24.5t21 -63.5q0 -43 -26 -90t-76 -78l-31 20q32 21 57.5 57t28.5 62q-16 -8 -37 -8q-24 0 -41.5 17.5t-17.5 41.5zM82 598q0 27 17.5 45.5t43.5 18.5t45 -19t19 -45t-18.5 -43.5t-45.5 -17.5q-26 0 -43.5 17.5t-17.5 43.5z" />
<glyph unicode="&#x3c;" horiz-adv-x="811" d="M61 307v72l689 315v-55l-644 -295l644 -299v-55z" />
<glyph unicode="=" d="M61 184v52h625v-52h-625zM61 446v52h625v-52h-625z" />
<glyph unicode="&#x3e;" horiz-adv-x="811" d="M61 -10v55l644 295l-644 299v55l689 -319v-70z" />
<glyph unicode="?" horiz-adv-x="686" d="M57 666q-17 146 62.5 233.5t226.5 87.5q120 0 198.5 -65.5t78.5 -173.5q0 -56 -18.5 -101.5t-46.5 -73.5t-61 -57t-61 -53t-46.5 -60t-18.5 -79v-80h-52v82q0 41 14 75.5t36 60t49 48.5t54 46.5t49 49.5t36 62.5t14 79.5q0 86 -63 139t-164 53q-70 0 -120.5 -23.5 t-77 -62.5t-36 -87t-1.5 -101h-52zM281 55q0 28 19 48t46 20q28 0 47 -19t19 -47t-20 -48t-48 -19q-26 2 -44.5 20.5t-18.5 44.5z" />
<glyph unicode="@" horiz-adv-x="1093" d="M61 502q5 133 75.5 245t183.5 176t241 64q110 0 201 -35t149.5 -94t91.5 -133t32.5 -156.5t-34.5 -160.5q-43 -101 -120 -165.5t-156 -64.5q-41 0 -63.5 27.5t-24.5 68.5q-42 -51 -81 -72.5t-114 -21.5q-52 0 -94.5 38.5t-60 110t9.5 171.5q34 125 114.5 204.5 t194.5 79.5q63 0 98.5 -39t47.5 -86l32 99h56l-142 -439q-15 -47 2.5 -70.5t48.5 -22.5t56 18q86 57 133 146t47 194q0 78 -38 147t-99.5 115t-137 72t-151.5 26q-110 0 -211.5 -59t-167 -162t-69.5 -223q-4 -125 54.5 -235t162.5 -176t225 -66q128 0 230 59t153 145h59 q-55 -108 -171.5 -179t-272.5 -71q-143 0 -258 72.5t-176 192.5t-56 260zM335 361.5q9 -64.5 40.5 -100.5t73.5 -36q78 0 131 48.5t106 172.5q29 74 26.5 139.5t-32 109.5t-72.5 44q-176 0 -252 -223q-30 -90 -21 -154.5z" />
<glyph unicode="A" horiz-adv-x="792" d="M-16 0l378 965h66l375 -965h-62l-118 309h-457l-121 -309h-61zM184 360h420l-207 549z" />
<glyph unicode="B" horiz-adv-x="835" d="M84 0v965h356q146 0 224.5 -52.5t95.5 -177.5q2 -12 2 -25q0 -64 -44 -120q-52 -68 -145 -82q99 -12 159.5 -78.5t60.5 -159.5q0 -55 -18.5 -101t-48.5 -76.5t-69.5 -52t-80.5 -31t-82 -9.5h-410zM143 51h320q124 0 198 56t74 163q0 99 -71 152t-201 53h-320v-424z M143 526h326q98 0 165.5 50t67.5 149q0 65 -34.5 109t-84.5 61.5t-112 17.5h-328v-387z" />
<glyph unicode="C" horiz-adv-x="933" d="M47 487v6q1 102 33 192q34 93 92.5 159t142.5 104.5t181 38.5q87 0 156.5 -27.5t108.5 -63.5t67.5 -85t37.5 -77.5t15 -55.5h-58q-24 117 -109.5 187.5t-219.5 70.5q-116 0 -205.5 -61.5t-136 -162.5t-46.5 -223q0 -90 25 -171.5t72.5 -146.5t124 -103.5t170.5 -38.5 q75 0 140 34.5t106.5 87.5t65.5 112t26 112h59q-3 -45 -18 -95t-47 -105t-76.5 -98t-114 -71.5t-152.5 -28.5q-103 0 -187.5 42t-138.5 113.5t-83.5 162.5t-30.5 192z" />
<glyph unicode="D" horiz-adv-x="882" d="M84 -2v967h317q190 0 305.5 -111.5t124.5 -333.5q1 -18 0 -35q-1 -221 -109 -349q-118 -138 -347 -138h-291zM143 51h256q189 0 287 131q87 117 87 295q0 22 -1 45q-13 210 -113.5 300.5t-279.5 90.5h-236v-862z" />
<glyph unicode="E" horiz-adv-x="743" d="M84 0v965h635v-52h-576v-387h541v-51h-541v-424h584v-51h-643z" />
<glyph unicode="F" horiz-adv-x="679" d="M84 0v965h592v-52h-533v-387h482v-51h-482v-475h-59z" />
<glyph unicode="G" horiz-adv-x="980" d="M49 471q0 100 29.5 191.5t83.5 164.5t141 116.5t193 43.5q72 0 133 -17.5t100 -46t70 -63t47 -68.5t26.5 -62.5t13.5 -45.5l3 -18h-55q-29 129 -124.5 199.5t-230.5 70.5q-115 0 -202.5 -69t-130 -173t-42.5 -223q0 -194 109 -318t285 -124q164 0 259.5 99.5t96.5 293.5 h-348v51h399v-473h-51v203q-102 -226 -360 -226q-203 0 -324 140t-121 354z" />
<glyph unicode="H" horiz-adv-x="886" d="M84 0v965h59v-439h605v439h57v-965h-57v475h-605v-475h-59z" />
<glyph unicode="I" horiz-adv-x="225" d="M84 0v965h59v-965h-59z" />
<glyph unicode="J" horiz-adv-x="636" d="M29 307h55v-24q0 -39 2 -69q4 -38 16.5 -75.5t34.5 -60t60.5 -36t93.5 -13.5q111 0 158 55t47 176v705h57v-705q0 -285 -264 -285q-144 0 -207 91q-55 77 -55 198q0 21 2 43z" />
<glyph unicode="K" horiz-adv-x="813" d="M84 0v965h59v-555l596 555h76l-434 -404l461 -561h-76l-426 522l-197 -184v-340z" />
<glyph unicode="L" horiz-adv-x="661" d="M84 0v965h59v-914h535v-51h-594z" />
<glyph unicode="M" horiz-adv-x="1071" d="M84 0v965h82l373 -902l366 902h82v-965h-57v895l-365 -895h-57l-365 893v-893h-59z" />
<glyph unicode="N" horiz-adv-x="897" d="M84 0v965h72l600 -885v885h59v-965h-67l-605 893v-893h-59z" />
<glyph unicode="O" horiz-adv-x="980" d="M41 487q0 140 53.5 253t157 180t240.5 67q194 0 322 -137t128 -344q0 -107 -27.5 -201t-81.5 -168.5t-142.5 -118t-201.5 -43.5q-140 0 -244 73.5t-154 188t-50 250.5zM100 487q0 -126 44 -229t133.5 -167t209.5 -64q95 0 173.5 40.5t127.5 108.5q48 67 74 153 q21 72 22 147q0 15 -1 30q-4 86 -31.5 162.5t-75.5 136.5t-121.5 95.5t-162.5 35.5q-123 0 -214 -64.5t-134.5 -164.5t-43.5 -220z" />
<glyph unicode="P" horiz-adv-x="782" d="M84 0v965h405q137 0 204 -73.5t67 -191.5q0 -128 -77 -199t-222 -71h-318v-430h-59zM143 481h322q115 0 176 59t61 156q0 99 -56.5 158t-176.5 59h-326v-432z" />
<glyph unicode="Q" horiz-adv-x="980" d="M41 487q0 140 53.5 253t157 180t240.5 67q194 0 322 -137t128 -344q0 -259 -141 -406l145 -108l-33 -39l-155 106q-111 -84 -269 -84q-140 0 -244 73.5t-154 188t-50 250.5zM100 487q0 -126 44 -229t133.5 -167t209.5 -64q128 0 224 71l-142 105l31 41l152 -109 q68 68 102 166q30 85 30 178q0 13 -1 27q-4 86 -31.5 162.5t-75.5 136.5t-121.5 95.5t-162.5 35.5q-123 0 -214 -64.5t-134.5 -164.5t-43.5 -220z" />
<glyph unicode="R" horiz-adv-x="835" d="M84 0v965h410q130 0 206 -62t76 -176q0 -107 -53 -174t-152 -86q58 -6 96.5 -27.5t58.5 -60.5t28 -87t8 -118v-47q0 -44 8 -75.5t16 -41.5l7 -10h-64q-27 33 -27 121v121q0 105 -58.5 150.5t-166.5 45.5h-334v-438h-59zM143 492h324q109 0 180.5 51t71.5 162 q0 112 -69.5 160t-198.5 48h-308v-421z" />
<glyph unicode="S" horiz-adv-x="835" d="M51 319h60q-1 -12 -1 -23q0 -118 78 -189q85 -78 238 -78q58 0 108.5 11t95.5 35.5t71 70.5t26 108q0 37 -11.5 66t-37 51t-53 37.5t-71.5 28.5t-80 21.5t-91 18.5q-161 31 -232 90t-71 185q0 73 49 128t121 81t153 26q67 0 121.5 -13.5t90.5 -34.5t63.5 -50t42 -56.5 t23.5 -57.5t11.5 -49.5t2.5 -35.5h-56q-8 110 -82.5 178t-216.5 68q-66 0 -124 -19t-99 -62.5t-41 -102.5q0 -35 8 -63.5t18.5 -48.5t32.5 -37t38 -26.5t49 -19.5t51 -14.5t57 -12.5q64 -13 102 -22t85 -23t73.5 -28t54.5 -35t42 -46.5t23 -60t9 -77.5q0 -123 -99.5 -192 t-256.5 -69q-83 0 -149 20t-107.5 53t-69 78t-38.5 92t-11 99z" />
<glyph unicode="T" horiz-adv-x="688" d="M-18 913v52h725v-52h-336v-913h-58v913h-331z" />
<glyph unicode="U" horiz-adv-x="890" d="M84 381v584h59v-584q0 -174 75.5 -264t221.5 -90q160 0 235 94.5t75 259.5v584h57v-584q0 -193 -91.5 -299.5t-275.5 -106.5q-182 0 -269 106.5t-87 299.5z" />
<glyph unicode="V" horiz-adv-x="737" d="M-18 965h61l326 -916l325 916h58l-351 -965h-67z" />
<glyph unicode="W" horiz-adv-x="1177" d="M-8 965h61l246 -904l252 904h74l256 -902l243 902h62l-273 -965h-65l-262 920l-254 -920h-68z" />
<glyph unicode="X" horiz-adv-x="737" d="M-23 0l357 498l-332 467h68l297 -420l305 420h69l-333 -467l352 -498h-72l-321 453l-320 -453h-70z" />
<glyph unicode="Y" horiz-adv-x="759" d="M-29 965h68l340 -508l344 508h65l-380 -562v-403h-58v403z" />
<glyph unicode="Z" horiz-adv-x="710" d="M-2 0v49l639 864h-600v52h663v-52l-643 -862h656v-51h-715z" />
<glyph unicode="[" horiz-adv-x="325" d="M127 -207v1233h184v-43h-133v-1147h133v-43h-184z" />
<glyph unicode="\" horiz-adv-x="450" d="M-18 987h55l430 -1010h-55z" />
<glyph unicode="]" horiz-adv-x="325" d="M14 -164h133v1147h-133v43h185v-1233h-185v43z" />
<glyph unicode="^" horiz-adv-x="811" d="M53 319l318 613h71l316 -613h-56l-294 570l-299 -570h-56z" />
<glyph unicode="_" d="M0 -100h748v-52h-748v52z" />
<glyph unicode="`" horiz-adv-x="225" d="M-41 987h70l161 -188h-49z" />
<glyph unicode="a" horiz-adv-x="661" d="M41 184q0 91 63.5 141t165.5 58q13 1 38 3q40 3 59.5 5t50.5 6.5t45.5 10.5t31 16t23 24.5t6.5 34.5v43q0 138 -196 138q-180 0 -201 -181h-51q4 111 71.5 169.5t171.5 58.5q103 0 178.5 -42.5t75.5 -127.5v-428q0 -69 47 -70q15 0 35 8v-43q-17 -9 -39.5 -9.5t-43 7.5 t-34.5 28t-14 48v57q-32 -75 -101 -114t-153 -39q-48 0 -86 8.5t-72 29t-52.5 61t-18.5 99.5zM90 184q0 -71 50.5 -113t138.5 -42q109 0 177 72.5t68 174.5v121q-6 -9 -18.5 -17t-31.5 -13t-35.5 -9t-42 -7t-40 -4.5t-40 -3.5t-31.5 -3q-195 -20 -195 -156z" />
<glyph unicode="b" horiz-adv-x="737" d="M86 0v965h51v-418q35 77 101.5 120.5t156.5 43.5q147 0 222 -98t75 -242q0 -185 -80 -286t-223 -101q-84 0 -149.5 45t-102.5 127v-156h-51zM139 371q0 -149 65 -245.5t185 -96.5q69 0 121 31t79.5 81.5t40.5 105t13 111.5q0 82 -25.5 149.5t-84.5 113t-144 45.5 q-81 0 -139.5 -43t-84.5 -108t-26 -144z" />
<glyph unicode="c" horiz-adv-x="688" d="M45 350q0 96 32.5 175.5t104.5 132.5t172 53q133 0 204.5 -66.5t78.5 -165.5h-49q-10 80 -67.5 133.5t-166.5 53.5q-117 0 -188.5 -92t-71.5 -224q0 -147 68.5 -234t191.5 -87q97 0 162.5 61t77.5 154h51q-14 -111 -91.5 -186.5t-199.5 -75.5q-144 0 -226.5 102 t-82.5 266z" />
<glyph unicode="d" horiz-adv-x="737" d="M45 365q0 153 75.5 249.5t219.5 96.5q88 0 159.5 -43t98.5 -121h2v418h51v-965h-51v156h-2q-5 -18 -20.5 -43t-44.5 -56t-80 -52t-113 -21q-33 0 -67 7t-77 32t-75 64t-54 111t-22 167zM94 365q0 -63 14 -120.5t42 -107t77 -79t113 -29.5q88 0 148 49.5t85 122.5t25 164 q0 136 -65.5 218.5t-192.5 82.5q-115 0 -180.5 -88.5t-65.5 -212.5z" />
<glyph unicode="e" horiz-adv-x="688" d="M45 340q0 101 32 183t102.5 135t168.5 53q71 0 127 -26t88.5 -66.5t52.5 -91.5t26 -97q4 -31 4 -61q0 -15 -1 -29h-551q0 -141 67.5 -226t186.5 -85q102 0 163.5 61t76.5 146h51q-21 -119 -93.5 -185.5t-197.5 -66.5q-79 0 -138.5 29t-94.5 79.5t-52.5 113t-17.5 134.5z M94 385h500q0 44 -15 91t-43 90.5t-77.5 71.5t-110.5 28q-62 0 -113 -29.5t-80.5 -74.5t-45 -91.5t-15.5 -85.5z" />
<glyph unicode="f" horiz-adv-x="319" d="M0 649v45h123v148q0 57 33.5 93t99.5 42q8 1 17 1t18 -1q19 -2 30 -5l11 -3v-47q-35 10 -64 10q-25 0 -45 -8q-51 -19 -51 -82v-148h141v-45h-141v-649h-49v649h-123z" />
<glyph unicode="g" horiz-adv-x="710" d="M45 377q0 142 80.5 238t210.5 96q87 0 153.5 -41.5t96.5 -118.5v143h51v-653q0 -162 -74.5 -233.5t-226.5 -71.5q-58 0 -103 12.5t-72.5 32.5t-46 49.5t-27 58t-11.5 62.5h53q0 -66 54 -119t153 -53q125 0 187.5 63.5t62.5 198.5v145q-76 -159 -250 -159q-63 0 -113 19.5 t-82.5 52.5t-54.5 78.5t-31.5 95t-9.5 104.5zM94 377q0 -132 62 -219.5t180 -87.5q116 0 183 82.5t67 224.5q0 120 -66 204.5t-184 84.5q-110 0 -176 -86.5t-66 -202.5z" />
<glyph unicode="h" horiz-adv-x="688" d="M74 0v965h51v-418q31 82 102.5 123t159.5 41q105 0 166 -68.5t61 -198.5v-444h-53v430q0 236 -180 236q-126 0 -191 -80.5t-65 -200.5v-385h-51z" />
<glyph unicode="i" horiz-adv-x="223" d="M86 0v694h51v-694h-51zM86 825v140h51v-140h-51z" />
<glyph unicode="j" horiz-adv-x="223" d="M-45 -205q29 -4 53 -0.5t41.5 15t27 41t9.5 77.5v766h51v-766q0 -105 -44 -144q-37 -33 -108 -33q-14 0 -30 1v43zM86 825v140h51v-140h-51z" />
<glyph unicode="k" horiz-adv-x="614" d="M76 0v965h51v-639l422 368h69l-294 -258l317 -436h-68l-288 395l-158 -135v-260h-51z" />
<glyph unicode="l" horiz-adv-x="223" d="M86 0v965h51v-965h-51z" />
<glyph unicode="m" horiz-adv-x="1052" d="M76 0v694h51v-141q23 72 83 115t130 43q163 0 211 -148q26 70 81 109t136 39q109 0 160 -67t51 -169v-475h-49v475q0 84 -41 137.5t-121 53.5q-93 0 -155 -65.5t-62 -182.5v-418h-49v465q0 55 -13 97.5t-51 73t-98 30.5q-92 0 -152.5 -73t-60.5 -157v-436h-51z" />
<glyph unicode="n" horiz-adv-x="688" d="M74 0v694h51v-147q29 79 99.5 121.5t148.5 42.5q126 0 183.5 -70t57.5 -188v-453h-53v453q0 93 -45 153t-143 60q-117 0 -182.5 -82t-65.5 -185v-399h-51z" />
<glyph unicode="o" horiz-adv-x="710" d="M43 356q0 146 83.5 250.5t227.5 104.5q140 0 227 -101t87 -254q0 -166 -83.5 -270t-230.5 -104q-139 0 -225 106.5t-86 267.5zM92 356q0 -86 27 -158t88 -120.5t147 -48.5q84 0 145.5 48.5t90 121t28.5 157.5q0 81 -29.5 150.5t-91 114.5t-143.5 45q-115 0 -188.5 -92 t-73.5 -218z" />
<glyph unicode="p" horiz-adv-x="737" d="M86 -248v942h51v-155q37 82 102.5 127t149.5 45q140 0 221.5 -96.5t81.5 -278.5q0 -68 -18.5 -129.5t-54 -112t-95.5 -80.5t-135 -30q-91 0 -158.5 39.5t-93.5 123.5v-395h-51zM137 324q0 -130 63 -212.5t189 -82.5q125 0 189.5 89.5t64.5 217.5q0 57 -13 111.5 t-40.5 105.5t-79.5 82t-121 31q-123 0 -187.5 -89.5t-64.5 -252.5z" />
<glyph unicode="q" horiz-adv-x="737" d="M45 336q0 184 81 279.5t222 95.5q84 0 149.5 -45t102.5 -127v155h51v-942h-51v395q-49 -88 -107.5 -125.5t-144.5 -37.5q-75 0 -135 30t-95.5 80.5t-54 112t-18.5 129.5zM94 336q0 -128 64.5 -217.5t189.5 -89.5q84 0 142.5 48.5t84 120t25.5 156.5q0 127 -67 219.5 t-185 92.5q-56 0 -101 -20t-73 -52t-46.5 -75.5t-26 -88.5t-7.5 -94z" />
<glyph unicode="r" horiz-adv-x="366" d="M74 0v694h51v-153q2 6 7 17t25.5 38t47.5 47.5t76 37.5t108 17v-51q-10 1 -19 1q-106 0 -172 -72q-72 -78 -73 -197v-379h-51z" />
<glyph unicode="s" horiz-adv-x="636" d="M49 231h49q0 -78 59 -140t160 -62q43 0 80.5 7t71 23t53 46.5t19.5 72.5q0 64 -53.5 99.5t-182.5 58.5q-48 9 -85 20.5t-73 32.5t-55.5 54.5t-19.5 78.5q0 92 63.5 140.5t181.5 48.5q73 0 124.5 -19.5t78 -53t38 -70t11.5 -79.5h-49q0 82 -53.5 129.5t-149.5 47.5 q-52 0 -93 -11.5t-71 -45.5t-30 -87q0 -25 11.5 -45t27.5 -33t42.5 -24.5t47.5 -17.5t53 -13q17 -4 47 -11t45.5 -10.5t40 -10.5t38 -12t32.5 -14.5t29 -19t22 -23t17.5 -29.5t9.5 -36.5t4 -44.5q0 -95 -73.5 -144.5t-199.5 -49.5q-129 0 -198.5 72.5t-69.5 174.5z" />
<glyph unicode="t" horiz-adv-x="344" d="M0 649v45h127v217h49v-217h150v-45h-150v-495q0 -67 38 -91q30 -19 83 -20q13 0 27 2v-47q-13 -1 -25 -1q-75 -1 -120 27q-52 32 -52 123v502h-127z" />
<glyph unicode="u" horiz-adv-x="688" d="M74 252v442h51v-442q0 -223 188 -223q62 0 111 24.5t78 64.5t44 87t15 96v393h53v-694h-53v152q-29 -82 -94 -125t-154 -43q-239 0 -239 268z" />
<glyph unicode="v" horiz-adv-x="587" d="M-2 694h57l248 -637l234 637h53l-256 -694h-64z" />
<glyph unicode="w" horiz-adv-x="933" d="M-2 694h53l195 -639l186 639h68l188 -639l191 639h57l-219 -694h-64l-186 635l-191 -635h-63z" />
<glyph unicode="x" horiz-adv-x="587" d="M-8 0l266 365l-248 329h70l215 -291l213 291h65l-245 -329l268 -365h-68l-233 326l-240 -326h-63z" />
<glyph unicode="y" horiz-adv-x="587" d="M-8 694h59l254 -631l234 631h55l-311 -817q-31 -81 -72 -103t-148 -22v43q84 0 120 23.5t63 99.5l30 86z" />
<glyph unicode="z" horiz-adv-x="563" d="M12 0v49l457 600h-420v45h483v-49l-460 -600h479v-45h-539z" />
<glyph unicode="{" horiz-adv-x="409" d="M88 373q48 20 74 86.5t26 169.5v184q0 25 5.5 52.5t18.5 58t40.5 50t64.5 19.5h58v-43h-37q-98 0 -98 -153v-176q0 -89 -19 -142t-76 -108q44 -32 69.5 -90.5t25.5 -130.5v-191q0 -90 23.5 -127t78.5 -37h33v-43h-39q-148 0 -148 195v192q0 85 -27 148.5t-73 85.5z" />
<glyph unicode="|" horiz-adv-x="301" d="M125 -23v1010h51v-1010h-51z" />
<glyph unicode="}" horiz-adv-x="409" d="M33 -205h33q55 0 78.5 37t23.5 127v191q0 72 25 130.5t69 90.5q-57 55 -75.5 107.5t-18.5 142.5v176q0 153 -98 153h-37v43h57q37 0 64.5 -19.5t40.5 -50t18.5 -58t5.5 -52.5v-184q0 -103 26 -169.5t74 -86.5q-46 -22 -73 -85.5t-27 -148.5v-192q0 -195 -147 -195h-39v43 z" />
<glyph unicode="~" horiz-adv-x="811" d="M98 301q62 111 174 111q45 0 94.5 -23t99.5 -46.5t95 -23.5q28 0 60.5 33t54.5 70l37 -41q-81 -113 -156 -113q-46 0 -105.5 23t-109 46t-70.5 23q-29 0 -52.5 -10t-40 -28t-24.5 -30.5t-18 -31.5z" />
<glyph unicode="&#xa2;" horiz-adv-x="757" />
<glyph unicode="&#xa3;" horiz-adv-x="854" />
<glyph unicode="&#xa4;" horiz-adv-x="839" d="M8 164l148 145q-62 83 -62 193q0 114 62 188l-148 150l76 71l145 -145q80 59 193 59q119 0 188 -59l150 145l71 -71l-145 -150q59 -80 59 -188q0 -113 -59 -193l145 -145l-71 -76l-150 148q-31 -25 -84 -43q-55 -19 -104 -19q-110 0 -193 62l-145 -148zM197 502 q0 -95 63 -164q65 -68 162 -68q93 0 158 68q63 63 63 164q0 94 -63 160.5t-158 66.5q-96 0 -160 -67q-65 -74 -65 -160z" />
<glyph unicode="&#xa5;" horiz-adv-x="1042" />
<glyph unicode="&#xa9;" horiz-adv-x="1134" d="M61 483q0 138 67.5 255t183.5 185t253 68t253 -68t183.5 -185t67.5 -255t-67.5 -255.5t-183.5 -186t-253 -68.5t-253 68.5t-183.5 186t-67.5 255.5zM109 483q0 -192 133.5 -327.5t322.5 -135.5q190 0 324.5 135.5t134.5 327.5t-134.5 327.5t-324.5 135.5 q-189 0 -322.5 -135.5t-133.5 -327.5zM276 479q0 138 78 230t221 92q108 0 181.5 -60t79.5 -149h-50q-46 166 -208 166q-118 0 -184 -79t-66 -194q0 -114 67 -195t180 -81q85 0 137 45t72 125h50q-14 -99 -82 -158t-179 -59q-131 0 -214 93t-83 224z" />
<glyph unicode="&#xab;" horiz-adv-x="514" d="M57 365l295 364l13 -41l-218 -323l218 -322l-13 -41zM262 365l158 286l14 -35l-94 -251l94 -250l-14 -37z" />
<glyph unicode="&#xac;" d="M61 297v90h605v-268h-82v178h-523z" />
<glyph unicode="&#xad;" d="M61 315v52h625v-52h-625z" />
<glyph unicode="&#xae;" horiz-adv-x="1134" d="M61 483q0 138 67.5 255t183.5 185t253 68t253 -68t183.5 -185t67.5 -255t-67.5 -255.5t-183.5 -186t-253 -68.5t-253 68.5t-183.5 186t-67.5 255.5zM109 483q0 -192 133.5 -327.5t322.5 -135.5q190 0 324.5 135.5t134.5 327.5t-134.5 327.5t-324.5 135.5 q-189 0 -322.5 -135.5t-133.5 -327.5zM383 184v596h227q85 0 139 -39.5t54 -113.5q0 -76 -43 -119.5t-111 -46.5l178 -277h-57l-180 275h-156v-275h-51zM434 504h107q31 0 48.5 0.5t46.5 3.5t46 10t35 18.5t26.5 31.5t8.5 46q0 123 -162 123h-156v-233z" />
<glyph unicode="&#xb0;" horiz-adv-x="540" d="M66 713q0 83 58 142.5t142 59.5q86 0 145.5 -58.5t59.5 -143.5t-59.5 -144t-145.5 -59q-82 0 -141 59t-59 144zM121 713q0 -60 42.5 -104t102.5 -44q62 0 105 43q45 45 45 105t-44 102.5t-106 42.5q-63 0 -104 -41t-41 -104z" />
<glyph unicode="&#xb6;" horiz-adv-x="727" d="M0 858q0 153 94 229q91 66 248 66h389v-41h-102v-1356h-62v1356h-145v-1356h-55v805q-168 0 -263 62q-104 73 -104 235z" />
<glyph unicode="&#xb7;" horiz-adv-x="337" d="M96 449q0 31 21 51t53 20q30 0 51 -21.5t21 -49.5q0 -31 -21.5 -52.5t-50.5 -21.5q-32 0 -53 21t-21 53z" />
<glyph unicode="&#xbb;" horiz-adv-x="514" d="M82 115l94 250l-94 251l14 35l158 -286l-158 -287zM152 43l217 322l-217 323l12 41l295 -364l-295 -363z" />
<glyph unicode="&#xbc;" horiz-adv-x="1327" />
<glyph unicode="&#xbd;" horiz-adv-x="1357" />
<glyph unicode="&#xbe;" horiz-adv-x="1327" />
<glyph unicode="&#xd7;" d="M76 80l260 262l-258 258l35 37l260 -260l260 262l37 -37l-260 -260l262 -262l-37 -37l-262 262l-260 -260z" />
<glyph unicode="&#xf7;" d="M61 315v52h625v-52h-625zM311 102q0 25 18.5 43.5t43.5 18.5t43 -18.5t18 -43.5q0 -24 -18.5 -42.5t-42.5 -18.5q-23 0 -42.5 19t-19.5 42zM311 600q0 25 18.5 43.5t43.5 18.5t43 -18.5t18 -43.5q0 -24 -18.5 -42.5t-42.5 -18.5q-23 0 -42.5 19t-19.5 42z" />
<glyph unicode="&#x2000;" horiz-adv-x="682" />
<glyph unicode="&#x2001;" horiz-adv-x="1365" />
<glyph unicode="&#x2002;" horiz-adv-x="682" />
<glyph unicode="&#x2003;" horiz-adv-x="1365" />
<glyph unicode="&#x2004;" horiz-adv-x="455" />
<glyph unicode="&#x2005;" horiz-adv-x="341" />
<glyph unicode="&#x2006;" horiz-adv-x="227" />
<glyph unicode="&#x2007;" horiz-adv-x="227" />
<glyph unicode="&#x2008;" horiz-adv-x="170" />
<glyph unicode="&#x2009;" horiz-adv-x="273" />
<glyph unicode="&#x200a;" horiz-adv-x="75" />
<glyph unicode="&#x2010;" horiz-adv-x="475" d="M94 342v51h289v-51h-289z" />
<glyph unicode="&#x2011;" horiz-adv-x="475" d="M94 342v51h289v-51h-289z" />
<glyph unicode="&#x2012;" horiz-adv-x="475" d="M94 342v51h289v-51h-289z" />
<glyph unicode="&#x2013;" d="M61 315v52h625v-52h-625z" />
<glyph unicode="&#x2014;" horiz-adv-x="1495" d="M61 315v52h1373v-52h-1373z" />
<glyph unicode="&#x2018;" horiz-adv-x="321" d="M82 846q0 47 28.5 98.5t84.5 85.5l32 -22q-35 -22 -63 -61.5t-31 -67.5q18 8 41 8q25 0 45.5 -19.5t20.5 -46.5q0 -29 -21.5 -50t-50.5 -21q-40 0 -63 27t-23 69z" />
<glyph unicode="&#x2019;" horiz-adv-x="321" d="M82 958q0 29 21.5 50.5t50.5 21.5q40 0 63 -27t23 -69q0 -47 -28.5 -98.5t-84.5 -85.5l-33 22q35 22 63 61.5t31 67.5q-18 -8 -41 -8q-25 0 -45 19t-20 46z" />
<glyph unicode="&#x201c;" horiz-adv-x="548" d="M82 846q0 47 28.5 98.5t84.5 85.5l32 -22q-35 -22 -63 -61.5t-31 -67.5q18 8 41 8q25 0 45.5 -19.5t20.5 -46.5q0 -29 -21.5 -50t-50.5 -21q-40 0 -63 27t-23 69zM309 846q0 47 28.5 98.5t84.5 85.5l33 -22q-35 -22 -63.5 -62t-31.5 -67q18 8 41 8q25 0 45.5 -19.5 t20.5 -46.5q0 -29 -21.5 -50t-50.5 -21q-40 0 -63 27t-23 69z" />
<glyph unicode="&#x201d;" horiz-adv-x="548" d="M82 958q0 29 21.5 50.5t50.5 21.5q40 0 63 -27t23 -69q0 -47 -28.5 -98.5t-84.5 -85.5l-33 22q35 22 63 61.5t31 67.5q-18 -8 -41 -8q-25 0 -45 19t-20 46zM309 958q0 29 21.5 50.5t50.5 21.5q40 0 63 -27t23 -69q0 -47 -28.5 -98.5t-84.5 -85.5l-32 22q35 22 63 61.5 t31 67.5q-18 -8 -41 -8q-26 0 -46 19t-20 46z" />
<glyph unicode="&#x2022;" horiz-adv-x="737" d="M61 410q0 127 90 217t218 90q127 0 217 -89.5t90 -217.5t-90 -218t-217 -90t-217.5 90t-90.5 218z" />
<glyph unicode="&#x2026;" horiz-adv-x="866" d="M82 51q0 27 17.5 45.5t43.5 18.5t45 -19t19 -45t-18.5 -43.5t-45.5 -17.5q-26 0 -43.5 17.5t-17.5 43.5zM371 51q0 27 17.5 45.5t43.5 18.5t45 -19t19 -45t-18.5 -43.5t-45.5 -17.5q-26 0 -43.5 17.5t-17.5 43.5zM659 51q0 26 18 45t44 19t44.5 -19t18.5 -45t-18.5 -43.5 t-44.5 -17.5t-44 17.5t-18 43.5z" />
<glyph unicode="&#x202f;" horiz-adv-x="273" />
<glyph unicode="&#x205f;" horiz-adv-x="341" />
<glyph unicode="&#x2122;" horiz-adv-x="1196" d="M41 918v47h434v-47h-192v-502h-54v502h-188zM557 416v549h66l204 -476l201 476h66v-549h-54v450l-190 -450h-49l-189 448v-448h-55z" />
<glyph unicode="&#x25fc;" horiz-adv-x="696" d="M0 0v696h696v-696h-696z" />
</font>
</defs>
</svg>
